<mxfile host="Electron" modified="2023-05-22T16:20:18.399Z" agent="Mozilla/5.0 (Windows NT 10.0; Win64; x64) AppleWebKit/537.36 (KHTML, like Gecko) draw.io/21.2.8 Chrome/112.0.5615.165 Electron/24.2.0 Safari/537.36" etag="P35JKeQpEgqS3orxE-7L" version="21.2.8" type="device">
  <diagram name="Pagina-1" id="MFzjI4ce2ZYakhR2pmrt">
    <mxGraphModel dx="-1959" dy="-563" grid="1" gridSize="10" guides="1" tooltips="1" connect="1" arrows="1" fold="1" page="1" pageScale="1" pageWidth="827" pageHeight="1169" math="0" shadow="0">
      <root>
        <mxCell id="0" />
        <mxCell id="1" parent="0" />
        <mxCell id="4Su6E81jZaX1F3saoZqb-1" value="Organizzatore" style="shape=umlActor;verticalLabelPosition=bottom;verticalAlign=top;html=1;outlineConnect=0;" parent="1" vertex="1">
          <mxGeometry x="3348" y="1802" width="30" height="60" as="geometry" />
        </mxCell>
        <mxCell id="4Su6E81jZaX1F3saoZqb-2" value="" style="endArrow=none;dashed=1;html=1;rounded=0;entryX=0;entryY=0;entryDx=45;entryDy=65;entryPerimeter=0;" parent="1" edge="1">
          <mxGeometry width="50" height="50" relative="1" as="geometry">
            <mxPoint x="3738" y="2980.8695652173915" as="sourcePoint" />
            <mxPoint x="3738.000000000001" y="1862.0000000000005" as="targetPoint" />
          </mxGeometry>
        </mxCell>
        <mxCell id="4Su6E81jZaX1F3saoZqb-3" value="Sistema" style="verticalAlign=top;align=center;spacingTop=8;spacingLeft=2;spacingRight=12;shape=cube;size=10;direction=south;fontStyle=4;html=1;whiteSpace=wrap;" parent="1" vertex="1">
          <mxGeometry x="3683" y="1817" width="120" height="45" as="geometry" />
        </mxCell>
        <mxCell id="4Su6E81jZaX1F3saoZqb-4" value="" style="endArrow=none;dashed=1;html=1;rounded=0;" parent="1" edge="1">
          <mxGeometry width="50" height="50" relative="1" as="geometry">
            <mxPoint x="3363" y="3003.478260869565" as="sourcePoint" />
            <mxPoint x="3363" y="1862" as="targetPoint" />
          </mxGeometry>
        </mxCell>
        <mxCell id="4Su6E81jZaX1F3saoZqb-5" value="1. verificaStatoTurni()" style="endArrow=classic;html=1;rounded=0;" parent="1" edge="1">
          <mxGeometry width="50" height="50" relative="1" as="geometry">
            <mxPoint x="3373" y="1922" as="sourcePoint" />
            <mxPoint x="3733" y="1922" as="targetPoint" />
          </mxGeometry>
        </mxCell>
        <mxCell id="4Su6E81jZaX1F3saoZqb-6" value="viene fornito il calendario contenente i turni" style="endArrow=classic;html=1;rounded=0;dashed=1;" parent="1" edge="1">
          <mxGeometry width="50" height="50" relative="1" as="geometry">
            <mxPoint x="3733" y="1948.52" as="sourcePoint" />
            <mxPoint x="3373" y="1948.52" as="targetPoint" />
          </mxGeometry>
        </mxCell>
        <mxCell id="4Su6E81jZaX1F3saoZqb-7" value="2. creazioneEvento(dataInizio,dataFine, nomeEvento, luogo,&amp;nbsp;numero partecipanti, cliente)" style="endArrow=classic;html=1;rounded=0;" parent="1" edge="1">
          <mxGeometry width="50" height="50" relative="1" as="geometry">
            <mxPoint x="3373" y="1994.5299999999997" as="sourcePoint" />
            <mxPoint x="3733" y="1994.5299999999997" as="targetPoint" />
          </mxGeometry>
        </mxCell>
        <mxCell id="4Su6E81jZaX1F3saoZqb-8" value="verrà creato un evento" style="endArrow=classic;html=1;rounded=0;dashed=1;" parent="1" edge="1">
          <mxGeometry width="50" height="50" relative="1" as="geometry">
            <mxPoint x="3733" y="2021.0500000000002" as="sourcePoint" />
            <mxPoint x="3373" y="2021.0500000000002" as="targetPoint" />
          </mxGeometry>
        </mxCell>
        <mxCell id="4Su6E81jZaX1F3saoZqb-9" value="3. aggiungiServizio(nome, orarioInizio, orarioFine, qtyPersonale, dettaglio)" style="endArrow=classic;html=1;rounded=0;" parent="1" edge="1">
          <mxGeometry width="50" height="50" relative="1" as="geometry">
            <mxPoint x="3373" y="2061.52" as="sourcePoint" />
            <mxPoint x="3733" y="2061.52" as="targetPoint" />
          </mxGeometry>
        </mxCell>
        <mxCell id="4Su6E81jZaX1F3saoZqb-10" value="verrà creato un servizio relativo all&#39;evento" style="endArrow=classic;html=1;rounded=0;dashed=1;" parent="1" edge="1">
          <mxGeometry width="50" height="50" relative="1" as="geometry">
            <mxPoint x="3728" y="2092" as="sourcePoint" />
            <mxPoint x="3368" y="2092" as="targetPoint" />
          </mxGeometry>
        </mxCell>
        <mxCell id="4Su6E81jZaX1F3saoZqb-11" value="LOOP" style="shape=umlFrame;whiteSpace=wrap;html=1;pointerEvents=0;fillColor=#dae8fc;strokeColor=#6c8ebf;width=35;height=15;strokeWidth=2;" parent="1" vertex="1">
          <mxGeometry x="3348" y="2047.5" width="400" height="62" as="geometry" />
        </mxCell>
        <mxCell id="4Su6E81jZaX1F3saoZqb-12" value="4. sceltaChef(chef)" style="endArrow=classic;html=1;rounded=0;" parent="1" edge="1">
          <mxGeometry x="0.0111" width="50" height="50" relative="1" as="geometry">
            <mxPoint x="3368" y="2124" as="sourcePoint" />
            <mxPoint x="3728" y="2124" as="targetPoint" />
            <mxPoint as="offset" />
          </mxGeometry>
        </mxCell>
        <mxCell id="4Su6E81jZaX1F3saoZqb-13" value="verrà assegnato uno chef al relativo evento" style="endArrow=classic;html=1;rounded=0;dashed=1;" parent="1" edge="1">
          <mxGeometry width="50" height="50" relative="1" as="geometry">
            <mxPoint x="3728" y="2143.5" as="sourcePoint" />
            <mxPoint x="3368" y="2143.5" as="targetPoint" />
          </mxGeometry>
        </mxCell>
        <mxCell id="4Su6E81jZaX1F3saoZqb-14" value="LOOP" style="shape=umlFrame;whiteSpace=wrap;html=1;pointerEvents=0;fillColor=#dae8fc;strokeColor=#6c8ebf;width=43;height=15;strokeWidth=2;" parent="1" vertex="1">
          <mxGeometry x="3330.5" y="2032" width="435" height="168" as="geometry" />
        </mxCell>
        <mxCell id="4Su6E81jZaX1F3saoZqb-15" value="6. assegnamentoPersonale(Turno, Servizio, Personale, ruolo)" style="endArrow=classic;html=1;rounded=0;" parent="1" edge="1">
          <mxGeometry width="50" height="50" relative="1" as="geometry">
            <mxPoint x="3369.25" y="2220.91" as="sourcePoint" />
            <mxPoint x="3729.25" y="2220.91" as="targetPoint" />
            <mxPoint as="offset" />
          </mxGeometry>
        </mxCell>
        <mxCell id="4Su6E81jZaX1F3saoZqb-16" value="ok" style="endArrow=classic;html=1;rounded=0;dashed=1;" parent="1" edge="1">
          <mxGeometry width="50" height="50" relative="1" as="geometry">
            <mxPoint x="3726.75" y="2236.3900000000003" as="sourcePoint" />
            <mxPoint x="3366.75" y="2236.3900000000003" as="targetPoint" />
          </mxGeometry>
        </mxCell>
        <mxCell id="4Su6E81jZaX1F3saoZqb-17" value="7. aggiuntaNota(Servizio?,Evento?, descrizione)" style="endArrow=classic;html=1;rounded=0;" parent="1" edge="1">
          <mxGeometry width="50" height="50" relative="1" as="geometry">
            <mxPoint x="3370.75" y="2625.5699999999997" as="sourcePoint" />
            <mxPoint x="3730.75" y="2625.5699999999997" as="targetPoint" />
            <mxPoint as="offset" />
          </mxGeometry>
        </mxCell>
        <mxCell id="4Su6E81jZaX1F3saoZqb-18" value="ok" style="endArrow=classic;html=1;rounded=0;dashed=1;" parent="1" edge="1">
          <mxGeometry width="50" height="50" relative="1" as="geometry">
            <mxPoint x="3728.25" y="2651.05" as="sourcePoint" />
            <mxPoint x="3368.25" y="2651.05" as="targetPoint" />
          </mxGeometry>
        </mxCell>
        <mxCell id="4Su6E81jZaX1F3saoZqb-19" value="LOOP" style="shape=umlFrame;whiteSpace=wrap;html=1;pointerEvents=0;fillColor=#dae8fc;strokeColor=#6c8ebf;width=60;height=20;strokeWidth=2;" parent="1" vertex="1">
          <mxGeometry x="3290" y="2030" width="520" height="630" as="geometry" />
        </mxCell>
        <mxCell id="4Su6E81jZaX1F3saoZqb-20" value="OPT" style="shape=umlFrame;whiteSpace=wrap;html=1;pointerEvents=0;fillColor=#d5e8d4;strokeColor=#82b366;width=30;height=15;" parent="1" vertex="1">
          <mxGeometry x="3354.5" y="2610" width="390" height="50" as="geometry" />
        </mxCell>
        <mxCell id="4Su6E81jZaX1F3saoZqb-21" value="passo 6" style="text;html=1;align=center;verticalAlign=middle;resizable=0;points=[];autosize=1;strokeColor=none;fillColor=none;" parent="1" vertex="1">
          <mxGeometry x="3503" y="1840" width="70" height="30" as="geometry" />
        </mxCell>
        <mxCell id="4Su6E81jZaX1F3saoZqb-22" value="LOOP" style="shape=umlFrame;whiteSpace=wrap;html=1;pointerEvents=0;fillColor=#dae8fc;strokeColor=#6c8ebf;width=33;height=15;strokeWidth=2;" parent="1" vertex="1">
          <mxGeometry x="3330.5" y="2200" width="432.5" height="410" as="geometry" />
        </mxCell>
        <mxCell id="4Su6E81jZaX1F3saoZqb-23" value="6.a.1 modificaAssegnamentoPersonale(Servizio,&lt;br&gt;Turno?, Personale?, ruolo?)" style="endArrow=classic;html=1;rounded=0;" parent="1" edge="1">
          <mxGeometry width="50" height="50" relative="1" as="geometry">
            <mxPoint x="3372.5" y="2369.9999999999995" as="sourcePoint" />
            <mxPoint x="3732.5" y="2369.9999999999995" as="targetPoint" />
            <mxPoint as="offset" />
          </mxGeometry>
        </mxCell>
        <mxCell id="4Su6E81jZaX1F3saoZqb-24" value="ok" style="endArrow=classic;html=1;rounded=0;dashed=1;" parent="1" edge="1">
          <mxGeometry width="50" height="50" relative="1" as="geometry">
            <mxPoint x="3730" y="2395.48" as="sourcePoint" />
            <mxPoint x="3370" y="2395.48" as="targetPoint" />
          </mxGeometry>
        </mxCell>
        <mxCell id="4Su6E81jZaX1F3saoZqb-25" value="6.a.1 il turno è già terminato" style="endArrow=classic;html=1;rounded=0;dashed=1;" parent="1" edge="1">
          <mxGeometry width="50" height="50" relative="1" as="geometry">
            <mxPoint x="3725.5" y="2274.8900000000003" as="sourcePoint" />
            <mxPoint x="3365.5" y="2274.8900000000003" as="targetPoint" />
          </mxGeometry>
        </mxCell>
        <mxCell id="4Su6E81jZaX1F3saoZqb-26" value="6.a.1.a il turno è già terminato" style="endArrow=classic;html=1;rounded=0;dashed=1;" parent="1" edge="1">
          <mxGeometry width="50" height="50" relative="1" as="geometry">
            <mxPoint x="3726.75" y="2419.33" as="sourcePoint" />
            <mxPoint x="3366.75" y="2419.33" as="targetPoint" />
          </mxGeometry>
        </mxCell>
        <mxCell id="4Su6E81jZaX1F3saoZqb-27" value="ALT" style="shape=umlFrame;whiteSpace=wrap;html=1;pointerEvents=0;fillColor=#e51400;strokeColor=#B20000;width=35;height=15;swimlaneFillColor=none;fillStyle=auto;fontColor=#ffffff;" parent="1" vertex="1">
          <mxGeometry x="3354.5" y="2210" width="387" height="140" as="geometry" />
        </mxCell>
        <mxCell id="4Su6E81jZaX1F3saoZqb-28" value="" style="endArrow=none;dashed=1;html=1;dashPattern=1 3;strokeWidth=2;rounded=0;exitX=-0.006;exitY=0.613;exitDx=0;exitDy=0;exitPerimeter=0;fillColor=#e51400;strokeColor=#B20000;" parent="1" edge="1">
          <mxGeometry width="50" height="50" relative="1" as="geometry">
            <mxPoint x="3354.5" y="2255" as="sourcePoint" />
            <mxPoint x="3740.5" y="2255" as="targetPoint" />
          </mxGeometry>
        </mxCell>
        <mxCell id="4Su6E81jZaX1F3saoZqb-29" value="ALT" style="shape=umlFrame;whiteSpace=wrap;html=1;pointerEvents=0;fillColor=#e51400;strokeColor=#B20000;width=35;height=15;swimlaneFillColor=none;fillStyle=auto;fontColor=#ffffff;" parent="1" vertex="1">
          <mxGeometry x="3354.5" y="2350" width="387" height="130" as="geometry" />
        </mxCell>
        <mxCell id="4Su6E81jZaX1F3saoZqb-30" value="" style="endArrow=none;dashed=1;html=1;dashPattern=1 3;strokeWidth=2;rounded=0;exitX=-0.006;exitY=0.613;exitDx=0;exitDy=0;exitPerimeter=0;fillColor=#e51400;strokeColor=#B20000;" parent="1" edge="1">
          <mxGeometry width="50" height="50" relative="1" as="geometry">
            <mxPoint x="3360.5" y="2410" as="sourcePoint" />
            <mxPoint x="3746.5" y="2410" as="targetPoint" />
          </mxGeometry>
        </mxCell>
        <mxCell id="4Su6E81jZaX1F3saoZqb-31" value="ALT" style="shape=umlFrame;whiteSpace=wrap;html=1;pointerEvents=0;fillColor=#e51400;strokeColor=#B20000;width=35;height=15;swimlaneFillColor=none;fillStyle=auto;fontColor=#ffffff;" parent="1" vertex="1">
          <mxGeometry x="3356" y="2480" width="387" height="110" as="geometry" />
        </mxCell>
        <mxCell id="4Su6E81jZaX1F3saoZqb-32" value="6.b.1 eliminaAssegnamentoPersonale(incaricoDiServizio)" style="endArrow=classic;html=1;rounded=0;" parent="1" edge="1">
          <mxGeometry width="50" height="50" relative="1" as="geometry">
            <mxPoint x="3366.75" y="2509.9999999999995" as="sourcePoint" />
            <mxPoint x="3726.75" y="2509.9999999999995" as="targetPoint" />
            <mxPoint as="offset" />
          </mxGeometry>
        </mxCell>
        <mxCell id="4Su6E81jZaX1F3saoZqb-33" value="ok" style="endArrow=classic;html=1;rounded=0;dashed=1;" parent="1" edge="1">
          <mxGeometry width="50" height="50" relative="1" as="geometry">
            <mxPoint x="3728" y="2534.52" as="sourcePoint" />
            <mxPoint x="3368" y="2534.52" as="targetPoint" />
          </mxGeometry>
        </mxCell>
        <mxCell id="4Su6E81jZaX1F3saoZqb-34" value="6.b.1.a il turno relativo all&#39;incarico è già terminato" style="endArrow=classic;html=1;rounded=0;dashed=1;" parent="1" edge="1">
          <mxGeometry width="50" height="50" relative="1" as="geometry">
            <mxPoint x="3728" y="2570" as="sourcePoint" />
            <mxPoint x="3368" y="2570" as="targetPoint" />
          </mxGeometry>
        </mxCell>
        <mxCell id="4Su6E81jZaX1F3saoZqb-35" value="" style="endArrow=none;dashed=1;html=1;dashPattern=1 3;strokeWidth=2;rounded=0;exitX=-0.006;exitY=0.613;exitDx=0;exitDy=0;exitPerimeter=0;fillColor=#e51400;strokeColor=#B20000;" parent="1" edge="1">
          <mxGeometry width="50" height="50" relative="1" as="geometry">
            <mxPoint x="3355" y="2550" as="sourcePoint" />
            <mxPoint x="3741" y="2550" as="targetPoint" />
          </mxGeometry>
        </mxCell>
        <mxCell id="4Su6E81jZaX1F3saoZqb-36" value="5. approvazioneMenu(servizio)" style="endArrow=classic;html=1;rounded=0;" parent="1" edge="1">
          <mxGeometry width="50" height="50" relative="1" as="geometry">
            <mxPoint x="3373" y="2170.3599999999997" as="sourcePoint" />
            <mxPoint x="3733" y="2170.3599999999997" as="targetPoint" />
            <mxPoint as="offset" />
          </mxGeometry>
        </mxCell>
        <mxCell id="4Su6E81jZaX1F3saoZqb-37" value="ok" style="endArrow=classic;html=1;rounded=0;dashed=1;" parent="1" edge="1">
          <mxGeometry width="50" height="50" relative="1" as="geometry">
            <mxPoint x="3733" y="2189.4999999999995" as="sourcePoint" />
            <mxPoint x="3373" y="2189.4999999999995" as="targetPoint" />
            <mxPoint as="offset" />
          </mxGeometry>
        </mxCell>
        <mxCell id="4Su6E81jZaX1F3saoZqb-40" value="6.a.2 il personale non è disponibile in quel turno" style="endArrow=classic;html=1;rounded=0;dashed=1;" parent="1" edge="1">
          <mxGeometry width="50" height="50" relative="1" as="geometry">
            <mxPoint x="3726.75" y="2305" as="sourcePoint" />
            <mxPoint x="3366.75" y="2305" as="targetPoint" />
          </mxGeometry>
        </mxCell>
        <mxCell id="4Su6E81jZaX1F3saoZqb-41" value="" style="endArrow=none;dashed=1;html=1;dashPattern=1 3;strokeWidth=2;rounded=0;exitX=-0.006;exitY=0.613;exitDx=0;exitDy=0;exitPerimeter=0;fillColor=#e51400;strokeColor=#B20000;" parent="1" edge="1">
          <mxGeometry width="50" height="50" relative="1" as="geometry">
            <mxPoint x="3357" y="2290" as="sourcePoint" />
            <mxPoint x="3743" y="2290" as="targetPoint" />
          </mxGeometry>
        </mxCell>
        <mxCell id="4Su6E81jZaX1F3saoZqb-42" value="6.a.3 il servizio è già seganto come terminato" style="endArrow=classic;html=1;rounded=0;dashed=1;" parent="1" edge="1">
          <mxGeometry width="50" height="50" relative="1" as="geometry">
            <mxPoint x="3729.5" y="2338" as="sourcePoint" />
            <mxPoint x="3369.5" y="2338" as="targetPoint" />
          </mxGeometry>
        </mxCell>
        <mxCell id="4Su6E81jZaX1F3saoZqb-43" value="" style="endArrow=none;dashed=1;html=1;dashPattern=1 3;strokeWidth=2;rounded=0;exitX=-0.006;exitY=0.613;exitDx=0;exitDy=0;exitPerimeter=0;fillColor=#e51400;strokeColor=#B20000;" parent="1" edge="1">
          <mxGeometry width="50" height="50" relative="1" as="geometry">
            <mxPoint x="3357" y="2325" as="sourcePoint" />
            <mxPoint x="3743" y="2325" as="targetPoint" />
          </mxGeometry>
        </mxCell>
        <mxCell id="4Su6E81jZaX1F3saoZqb-46" value="6.a.1.b il personale non è disponibile in quel turno" style="endArrow=classic;html=1;rounded=0;dashed=1;" parent="1" edge="1">
          <mxGeometry width="50" height="50" relative="1" as="geometry">
            <mxPoint x="3726" y="2458.89" as="sourcePoint" />
            <mxPoint x="3366" y="2458.89" as="targetPoint" />
          </mxGeometry>
        </mxCell>
        <mxCell id="4Su6E81jZaX1F3saoZqb-47" value="" style="endArrow=none;dashed=1;html=1;dashPattern=1 3;strokeWidth=2;rounded=0;exitX=-0.006;exitY=0.613;exitDx=0;exitDy=0;exitPerimeter=0;fillColor=#e51400;strokeColor=#B20000;" parent="1" edge="1">
          <mxGeometry width="50" height="50" relative="1" as="geometry">
            <mxPoint x="3357" y="2441.25" as="sourcePoint" />
            <mxPoint x="3743" y="2441.25" as="targetPoint" />
          </mxGeometry>
        </mxCell>
      </root>
    </mxGraphModel>
  </diagram>
</mxfile>
